<svg xmlns="http://www.w3.org/2000/svg" width="135.586" height="41.257" viewBox="0 0 135.586 41.257">
  <g id="logo_sm" transform="translate(-15 -6)">
    <path id="Path_453" data-name="Path 453" d="M627.332,311.734c0,.058,0,.117,0,.175,0-.058,0-.117-.005-.175a17.391,17.391,0,0,1-2.557,5.561,14.052,14.052,0,0,1-.924,1.164,37.923,37.923,0,0,0-3.247-10.88,3.431,3.431,0,0,0,1-4.315h0a3.431,3.431,0,0,0-3.491-1.831,29.11,29.11,0,0,0-1.084-12.739c-.088-.28-.182-.558-.279-.834a18.051,18.051,0,0,1-8.09,1.968,28.974,28.974,0,0,1,8.6,11.826c-.1.039-.191.081-.284.129h0a3.413,3.413,0,0,0-.947.724,29.074,29.074,0,0,1-7.878-2.556c-.21-.1-.419-.21-.625-.317a29.132,29.132,0,0,1-4.885-3.2,28.76,28.76,0,0,1-3.871-3.784,17.878,17.878,0,0,1-1.9,10.447c-.027.053-.055.107-.085.159a28.936,28.936,0,0,0,18.431.742,3.419,3.419,0,0,0,.274,2.4h0a3.43,3.43,0,0,0,3.081,1.859A23.558,23.558,0,0,1,606.6,327.43c-.267.15-.538.294-.811.434a38.086,38.086,0,0,0,18.182.291l0-.014a32.6,32.6,0,0,0,3.4-15.037,33.063,33.063,0,0,0,3.814,13.685c.2.375.4.741.6,1.1a17.4,17.4,0,0,1-.245-6.116c.52-3.524,2.255-6.441,5.083-7.917.133-.069.269-.134.406-.2A18.5,18.5,0,0,0,627.332,311.734Z" transform="translate(-581.787 -281.859)" fill="#5e5e5e"/>
    <path id="Path_454" data-name="Path 454" d="M614.776,370.625l-1.224-.715-.917.669,3.174,1.576,1.374,1.882.844-.616-1.373-1.883-.472-3.549-.821.6.325,1.409c.065.368.165.9.238,1.25l-.036.026C615.6,371.085,615.12,370.818,614.776,370.625Z" transform="translate(-591.405 -330.492)" fill="#5e5e5e"/>
    <rect id="Rectangle_1485" data-name="Rectangle 1485" width="1.053" height="5.483" transform="matrix(0.69, -0.723, 0.723, 0.69, 24.892, 37.198)" fill="#5e5e5e"/>
    <path id="Path_455" data-name="Path 455" d="M625.229,362.431l4.523,3.112,1.7-2.468-.523-.36-1.1,1.6-4-2.753Z" transform="translate(-599.049 -326.592)" fill="#5e5e5e"/>
    <rect id="Rectangle_1486" data-name="Rectangle 1486" width="1.053" height="5.48" transform="matrix(0.431, -0.902, 0.902, 0.431, 28.074, 32.878)" fill="#5e5e5e"/>
    <path id="Path_456" data-name="Path 456" d="M632.525,344.443l-.3,1.148,5.3,1.4.213-.809-4.181-1.1.012-.043c.976-.245,2.475-.629,4.782-1.171l.292-1.1-5.3-1.4-.213.809,4.16,1.1-.013.051C635.88,343.614,634.22,343.994,632.525,344.443Z" transform="translate(-603.293 -314.329)" fill="#5e5e5e"/>
    <text id="Protfolio" transform="translate(62.586 34.596)" fill="#5e5e5e" font-size="16" font-family="jf-jinxuan-fresh2.2-Medium, "jf-jinxuan-fresh2.2"" font-weight="500" letter-spacing="0.2em"><tspan x="0" y="0">Protfolio</tspan></text>
  </g>
</svg>
