<svg xmlns="http://www.w3.org/2000/svg" width="204" height="58.955" viewBox="0 0 204 58.955">
  <g id="logo_wt" transform="translate(14 2503)">
    <path id="Path_453" data-name="Path 453" d="M640.435,321.975c0,.083,0,.167,0,.25,0-.083,0-.167-.007-.25a24.852,24.852,0,0,1-3.653,7.947,20.085,20.085,0,0,1-1.321,1.663,54.188,54.188,0,0,0-4.64-15.547,4.9,4.9,0,0,0,1.424-6.166h0a4.9,4.9,0,0,0-4.989-2.616,41.6,41.6,0,0,0-1.549-18.2c-.126-.4-.26-.8-.4-1.192a25.793,25.793,0,0,1-11.56,2.812,41.4,41.4,0,0,1,12.3,16.9c-.136.055-.272.115-.406.184h0a4.878,4.878,0,0,0-1.354,1.034,41.549,41.549,0,0,1-11.258-3.652c-.3-.147-.6-.3-.893-.453a41.623,41.623,0,0,1-6.98-4.566,41.1,41.1,0,0,1-5.531-5.407,25.548,25.548,0,0,1-2.712,14.928c-.039.075-.079.153-.121.227a41.348,41.348,0,0,0,26.338,1.061,4.886,4.886,0,0,0,.392,3.434h0a4.9,4.9,0,0,0,4.4,2.657A33.664,33.664,0,0,1,610.8,344.406c-.382.215-.769.42-1.159.62a54.425,54.425,0,0,0,25.982.416l0-.02a46.578,46.578,0,0,0,4.853-21.488,47.246,47.246,0,0,0,5.45,19.555c.28.535.565,1.059.86,1.577a24.861,24.861,0,0,1-.349-8.74c.743-5.035,3.223-9.2,7.263-11.313.19-.1.384-.192.58-.281A26.439,26.439,0,0,0,640.435,321.975Z" transform="translate(-610.787 -2790.859)" fill="#fff"/>
    <path id="Path_454" data-name="Path 454" d="M615.7,371.755l-1.75-1.022-1.31.956,4.536,2.252,1.963,2.69,1.207-.88-1.963-2.691-.674-5.071-1.173.856.465,2.013c.093.526.235,1.282.34,1.787l-.052.038C616.876,372.413,616.187,372.031,615.7,371.755Z" transform="translate(-617.733 -2825.98)" fill="#fff"/>
    <rect id="Rectangle_1485" data-name="Rectangle 1485" width="1.505" height="7.836" transform="matrix(0.69, -0.723, 0.723, 0.69, 0.135, -2458.418)" fill="#fff"/>
    <path id="Path_455" data-name="Path 455" d="M625.229,362.8l6.463,4.448,2.427-3.527-.748-.514L631.8,365.5l-5.716-3.934Z" transform="translate(-623.253 -2823.163)" fill="#fff"/>
    <rect id="Rectangle_1486" data-name="Rectangle 1486" width="1.504" height="7.831" transform="matrix(0.431, -0.902, 0.902, 0.431, 4.683, -2464.592)" fill="#fff"/>
    <path id="Path_456" data-name="Path 456" d="M632.655,345.766l-.433,1.641,7.575,2,.3-1.157-5.975-1.578.017-.062c1.394-.349,3.537-.9,6.833-1.673l.417-1.579-7.575-2-.305,1.156,5.944,1.57-.019.072C637.45,344.582,635.077,345.125,632.655,345.766Z" transform="translate(-626.318 -2814.308)" fill="#fff"/>
    <text id="Protfolio" transform="translate(54 -2460)" fill="#fff" font-size="25" font-family="jf-jinxuan-fresh2.2-Medium, "jf-jinxuan-fresh2.2"" font-weight="500" letter-spacing="0.2em"><tspan x="0" y="0">Protfolio</tspan></text>
  </g>
</svg>
